<?xml version="1.0" encoding="UTF-8" standalone="no"?>
<svg width="99px" height="97px" viewBox="0 0 99 97" version="1.1" xmlns="http://www.w3.org/2000/svg" xmlns:xlink="http://www.w3.org/1999/xlink">
    <!-- Generator: Sketch 3.7 (28169) - http://www.bohemiancoding.com/sketch -->
    <title>ryan copy 2</title>
    <desc>Created with Sketch.</desc>
    <defs></defs>
    <g id="Page-1" stroke="none" stroke-width="1" fill="none" fill-rule="evenodd">
        <g id="Logo-RCR" transform="translate(-407.000000, -359.000000)">
            <g id="ryan-copy-2" transform="translate(407.000000, 359.000000)">
                <g id="ryan-kick">
                    <rect id="Rectangle-2357-Copy-129" fill="#000000" transform="translate(52.904501, 8.015834) rotate(-270.000000) translate(-52.904501, -8.015834) " x="44.8886678" y="6.41266683" width="16.0316671" height="3.20633341"></rect>
                    <rect id="Rectangle-2357-Copy-130" fill="#000000" transform="translate(56.110835, 8.015834) rotate(-270.000000) translate(-56.110835, -8.015834) " x="48.0950012" y="6.41266683" width="16.0316671" height="3.20633341"></rect>
                    <rect id="Rectangle-2357-Copy-131" fill="#000000" transform="translate(62.523502, 8.015834) rotate(-270.000000) translate(-62.523502, -8.015834) " x="54.5076681" y="6.41266683" width="16.0316671" height="3.20633341"></rect>
                    <rect id="Rectangle-2357-Copy-116" fill="#FFFFFF" x="38.476001" y="35.2696676" width="16.0316671" height="3.20633341"></rect>
                    <rect id="Rectangle-2357-Copy-120" fill="#000000" transform="translate(27.253834, 6.412667) rotate(-270.000000) translate(-27.253834, -6.412667) " x="20.8411672" y="4.80950012" width="12.8253337" height="3.20633341"></rect>
                    <rect id="Rectangle-2357-Copy-127" fill="#000000" transform="translate(46.491835, 6.412667) rotate(-270.000000) translate(-46.491835, -6.412667) " x="40.0791677" y="4.80950012" width="12.8253337" height="3.20633341"></rect>
                    <rect id="Rectangle-2357-Copy-128" fill="#000000" transform="translate(49.698168, 6.412667) rotate(-270.000000) translate(-49.698168, -6.412667) " x="43.2855011" y="4.80950012" width="12.8253337" height="3.20633341"></rect>
                    <rect id="Rectangle-2357-Copy-121" fill="#000000" transform="translate(27.253834, 19.238000) rotate(-270.000000) translate(-27.253834, -19.238000) " x="20.8411672" y="17.6348338" width="12.8253337" height="3.20633341"></rect>
                    <rect id="Rectangle-2357-Copy-113" fill="#000000" x="35.2696676" y="41.6823344" width="12.8253337" height="3.20633341"></rect>
                    <rect id="Rectangle-2357-Copy-138" fill="#000000" x="35.2696676" y="12.8253337" width="6.41266683" height="3.20633341"></rect>
                    <rect id="Rectangle-2357-Copy-140" fill="#000000" x="70.5393351" y="38.476001" width="6.41266683" height="3.20633341"></rect>
                    <rect id="Rectangle-2357-Copy-141" fill="#000000" x="64.1266683" y="28.8570007" width="6.41266683" height="3.20633341"></rect>
                    <rect id="Rectangle-2357-Copy-144" fill="#000000" x="57.7140015" y="25.6506673" width="6.41266683" height="3.20633341"></rect>
                    <rect id="Rectangle-2357-Copy-114" fill="#000000" x="48.0950012" y="41.6823344" width="6.41266683" height="3.20633341"></rect>
                    <rect id="Rectangle-2357-Copy-118" fill="#000000" transform="translate(24.047501, 17.634834) rotate(-270.000000) translate(-24.047501, -17.634834) " x="19.2380005" y="16.0316671" width="9.61900024" height="3.20633341"></rect>
                    <rect id="Rectangle-2357-Copy-119" fill="#000000" transform="translate(24.047501, 8.015834) rotate(-270.000000) translate(-24.047501, -8.015834) " x="19.2380005" y="6.41266683" width="9.61900024" height="3.20633341"></rect>
                    <rect id="Rectangle-2357-Copy-125" fill="#000000" transform="translate(40.079168, 4.809500) rotate(-270.000000) translate(-40.079168, -4.809500) " x="35.2696676" y="3.20633341" width="9.61900024" height="3.20633341"></rect>
                    <rect id="Rectangle-2357-Copy-132" fill="#000000" transform="translate(59.317168, 4.809500) rotate(-270.000000) translate(-59.317168, -4.809500) " x="54.5076681" y="3.20633341" width="9.61900024" height="3.20633341"></rect>
                    <rect id="Rectangle-2357-Copy-133" fill="#000000" transform="translate(59.317168, 14.428500) rotate(-270.000000) translate(-59.317168, -14.428500) " x="54.5076681" y="12.8253337" width="9.61900024" height="3.20633341"></rect>
                    <rect id="Rectangle-2357-Copy-134" fill="#000000" transform="translate(65.729835, 8.015834) rotate(-270.000000) translate(-65.729835, -8.015834) " x="60.9203349" y="6.41266683" width="9.61900024" height="3.20633341"></rect>
                    <rect id="Rectangle-2357-Copy-145" fill="#000000" transform="translate(59.317168, 33.666501) rotate(-270.000000) translate(-59.317168, -33.666501) " x="54.5076681" y="32.0633341" width="9.61900024" height="3.20633341"></rect>
                    <rect id="Rectangle-2357-Copy-139" fill="#000000" transform="translate(75.348835, 46.491835) rotate(-270.000000) translate(-75.348835, -46.491835) " x="70.5393351" y="44.8886678" width="9.61900024" height="3.20633341"></rect>
                    <rect id="Rectangle-2357-Copy-126" fill="#000000" transform="translate(43.285501, 4.809500) rotate(-270.000000) translate(-43.285501, -4.809500) " x="38.476001" y="3.20633341" width="9.61900024" height="3.20633341"></rect>
                    <rect id="Rectangle-2357-Copy-104" fill="#000000" x="6.41266683" y="41.6823344" width="9.61900024" height="3.20633341"></rect>
                    <rect id="Rectangle-2357-Copy-105" fill="#000000" x="12.8253337" y="38.476001" width="9.61900024" height="3.20633341"></rect>
                    <rect id="Rectangle-2357-Copy-117" fill="#FFFFFF" x="38.476001" y="32.0633341" width="9.61900024" height="3.20633341"></rect>
                    <rect id="Rectangle-2357-Copy-146" fill="#000000" x="60.9203349" y="35.2696676" width="9.61900024" height="3.20633341"></rect>
                    <rect id="Rectangle-2357-Copy-107" fill="#000000" transform="translate(20.841167, 35.269668) rotate(-270.000000) translate(-20.841167, -35.269668) " x="17.6348338" y="33.6665009" width="6.41266683" height="3.20633341"></rect>
                    <rect id="Rectangle-2357-Copy-123" fill="#000000" transform="translate(30.460167, 3.206333) rotate(-270.000000) translate(-30.460167, -3.206333) " x="27.253834" y="1.60316671" width="6.41266683" height="3.20633341"></rect>
                    <rect id="Rectangle-2357-Copy-124" fill="#000000" transform="translate(36.872834, 3.206333) rotate(-270.000000) translate(-36.872834, -3.206333) " x="33.6665009" y="1.60316671" width="6.41266683" height="3.20633341"></rect>
                    <rect id="Rectangle-2357-Copy-135" fill="#000000" transform="translate(56.110835, 22.444334) rotate(-270.000000) translate(-56.110835, -22.444334) " x="52.9045013" y="20.8411672" width="6.41266683" height="3.20633341"></rect>
                    <rect id="Rectangle-2357-Copy-136" fill="#000000" transform="translate(46.491835, 22.444334) rotate(-270.000000) translate(-46.491835, -22.444334) " x="43.2855011" y="20.8411672" width="6.41266683" height="3.20633341"></rect>
                    <rect id="Rectangle-2357-Copy-122" fill="#000000" x="32.0633341" y="0" width="3.20633341" height="3.20633341"></rect>
                    <rect id="Rectangle-2357-Copy-137" fill="#000000" x="41.6823344" y="16.0316671" width="3.20633341" height="3.20633341"></rect>
                    <rect id="Rectangle-2357-Copy-142" fill="#000000" x="73.7456685" y="35.2696676" width="3.20633341" height="3.20633341"></rect>
                    <rect id="Rectangle-2357-Copy-143" fill="#000000" x="70.5393351" y="32.0633341" width="3.20633341" height="3.20633341"></rect>
                    <rect id="Rectangle-2357-Copy-109" fill="#000000" x="16.0316671" y="35.2696676" width="3.20633341" height="3.20633341"></rect>
                    <rect id="Rectangle-2357-Copy-108" fill="#000000" transform="translate(27.253834, 32.063334) rotate(-270.000000) translate(-27.253834, -32.063334) " x="24.0475006" y="30.4601674" width="6.41266683" height="3.20633341"></rect>
                    <rect id="Rectangle-2357-Copy-110" fill="#000000" x="22.4443339" y="28.8570007" width="3.20633341" height="3.20633341"></rect>
                    <rect id="Rectangle-2357-Copy-111" fill="#000000" x="32.0633341" y="38.476001" width="3.20633341" height="3.20633341"></rect>
                    <rect id="Rectangle-2357-Copy-115" fill="#000000" x="54.5076681" y="38.476001" width="3.20633341" height="3.20633341"></rect>
                    <rect id="Rectangle-2357-Copy-112" fill="#000000" x="28.8570007" y="35.2696676" width="3.20633341" height="3.20633341"></rect>
                    <rect id="Rectangle-2357-Copy-106" fill="#000000" x="19.2380005" y="41.6823344" width="3.20633341" height="3.20633341"></rect>
                    <rect id="Rectangle-2357-Copy-147" fill="#006CF0" x="22.4443339" y="41.6823344" width="12.8253337" height="3.20633341"></rect>
                    <rect id="Rectangle-2357-Copy-149" fill="#006CF0" x="22.4443339" y="35.2696676" width="6.41266683" height="3.20633341"></rect>
                    <rect id="Rectangle-2357-Copy-148" fill="#006CF0" x="22.4443339" y="38.476001" width="9.61900024" height="3.20633341"></rect>
                    <rect id="Rectangle-2357-Copy-179" fill="#006CF0" x="60.9203349" y="32.0633341" width="9.61900024" height="3.20633341"></rect>
                    <rect id="Rectangle-2357-Copy-150" fill="#006CF0" x="22.4443339" y="32.0633341" width="3.20633341" height="3.20633341"></rect>
                    <rect id="Rectangle-2357-Copy-180" fill="#006CF0" x="60.9203349" y="28.8570007" width="3.20633341" height="3.20633341"></rect>
                    <rect id="Rectangle-2357-Copy-181" fill="#006CF0" x="70.5393351" y="35.2696676" width="3.20633341" height="3.20633341"></rect>
                    <rect id="Rectangle-2357-Copy-173" fill="#FE735B" x="28.8570007" y="25.6506673" width="16.0316671" height="3.20633341"></rect>
                    <rect id="Rectangle-2357-Copy-174" fill="#FE735B" x="28.8570007" y="28.8570007" width="16.0316671" height="3.20633341"></rect>
                    <rect id="Rectangle-2357-Copy-155" fill="#FE735B" x="44.8886678" y="16.0316671" width="12.8253337" height="3.20633341"></rect>
                    <rect id="Rectangle-2357-Copy-178" fill="#FE735B" x="57.7140015" y="38.476001" width="12.8253337" height="3.20633341"></rect>
                    <rect id="Rectangle-2357-Copy-166" fill="#FE735B" x="44.8886678" y="25.6506673" width="12.8253337" height="3.20633341"></rect>
                    <rect id="Rectangle-2357-Copy-167" fill="#FE735B" x="44.8886678" y="28.8570007" width="12.8253337" height="3.20633341"></rect>
                    <rect id="Rectangle-2357-Copy-154" fill="#FE735B" x="28.8570007" y="12.8253337" width="6.41266683" height="3.20633341"></rect>
                    <rect id="Rectangle-2357-Copy-156" fill="#FE735B" x="28.8570007" y="16.0316671" width="6.41266683" height="3.20633341"></rect>
                    <rect id="Rectangle-2357-Copy-171" fill="#FE735B" x="28.8570007" y="19.2380005" width="6.41266683" height="3.20633341"></rect>
                    <rect id="Rectangle-2357-Copy-172" fill="#FE735B" x="28.8570007" y="22.4443339" width="6.41266683" height="3.20633341"></rect>
                    <rect id="Rectangle-2357-Copy-170" fill="#FE735B" x="38.476001" y="9.61900024" width="6.41266683" height="3.20633341"></rect>
                    <rect id="Rectangle-2357-Copy-163" fill="#FE735B" x="32.0633341" y="35.2696676" width="6.41266683" height="3.20633341"></rect>
                    <rect id="Rectangle-2357-Copy-175" fill="#FE735B" x="22.4443339" y="25.6506673" width="6.41266683" height="3.20633341"></rect>
                    <rect id="Rectangle-2357-Copy-159" fill="#FE735B" x="48.0950012" y="19.2380005" width="6.41266683" height="3.20633341"></rect>
                    <rect id="Rectangle-2357-Copy-160" fill="#FE735B" x="48.0950012" y="22.4443339" width="6.41266683" height="3.20633341"></rect>
                    <rect id="Rectangle-2357-Copy-153" fill="#FE735B" x="28.8570007" y="6.41266683" width="9.61900024" height="3.20633341"></rect>
                    <rect id="Rectangle-2357-Copy-168" fill="#FE735B" x="28.8570007" y="9.61900024" width="9.61900024" height="3.20633341"></rect>
                    <rect id="Rectangle-2357-Copy-176" fill="#FE735B" x="54.5076681" y="41.6823344" width="9.61900024" height="3.20633341"></rect>
                    <rect id="Rectangle-2357-Copy-177" fill="#FE735B" x="64.1266683" y="41.6823344" width="9.61900024" height="3.20633341"></rect>
                    <rect id="Rectangle-2357-Copy-169" fill="#FE735B" x="41.6823344" y="12.8253337" width="9.61900024" height="3.20633341"></rect>
                    <rect id="Rectangle-2357-Copy-161" fill="#FE735B" x="48.0950012" y="32.0633341" width="9.61900024" height="3.20633341"></rect>
                    <rect id="Rectangle-2357-Copy-162" fill="#FE735B" x="28.8570007" y="32.0633341" width="9.61900024" height="3.20633341"></rect>
                    <rect id="Rectangle-2357-Copy-164" fill="#FE735B" x="35.2696676" y="38.476001" width="9.61900024" height="3.20633341"></rect>
                    <rect id="Rectangle-2357-Copy-165" fill="#FE735B" x="44.8886678" y="38.476001" width="9.61900024" height="3.20633341"></rect>
                    <rect id="Rectangle-2357-Copy-152" fill="#FE735B" x="32.0633341" y="3.20633341" width="3.20633341" height="3.20633341"></rect>
                    <rect id="Rectangle-2357-Copy-157" fill="#FE735B" x="22.4443339" y="22.4443339" width="3.20633341" height="3.20633341"></rect>
                    <rect id="Rectangle-2357-Copy-158" fill="#FE735B" x="54.5076681" y="35.2696676" width="3.20633341" height="3.20633341"></rect>
                    <rect id="Rectangle-2357-Copy-151" fill="#FE735B" x="16.0316671" y="41.6823344" width="3.20633341" height="3.20633341"></rect>
                    <rect id="Rectangle-2357" fill="#000000" x="28.8570007" y="92.983669" width="6.41266683" height="3.20633341"></rect>
                    <rect id="Rectangle-2357-Copy-36" fill="#000000" x="48.0950012" y="64.1266683" width="16.0316671" height="3.20633341"></rect>
                    <rect id="Rectangle-2357-Copy-67" fill="#000000" x="48.0950012" y="44.8886678" width="12.8253337" height="3.20633341"></rect>
                    <rect id="Rectangle-2357-Copy-99" fill="#000000" x="48.0950012" y="44.8886678" width="3.20633341" height="3.20633341"></rect>
                    <rect id="Rectangle-2357-Copy-68" fill="#000000" transform="translate(62.523502, 54.507668) rotate(-270.000000) translate(-62.523502, -54.507668) " x="56.1108348" y="52.9045013" width="12.8253337" height="3.20633341"></rect>
                    <rect id="Rectangle-2357-Copy-46" fill="#000000" x="22.4443339" y="51.3013346" width="12.8253337" height="3.20633341"></rect>
                    <rect id="Rectangle-2357-Copy-44" fill="#000000" x="32.0633341" y="54.5076681" width="12.8253337" height="3.20633341"></rect>
                    <rect id="Rectangle-2357-Copy-41" fill="#000000" x="35.2696676" y="60.9203349" width="12.8253337" height="3.20633341"></rect>
                    <rect id="Rectangle-2357-Copy-54" fill="#000000" x="19.2380005" y="48.0950012" width="6.41266683" height="3.20633341"></rect>
                    <rect id="Rectangle-2357-Copy-55" fill="#000000" x="16.0316671" y="44.8886678" width="6.41266683" height="3.20633341"></rect>
                    <rect id="Rectangle-2357-Copy-50" fill="#000000" x="6.41266683" y="60.9203349" width="6.41266683" height="3.20633341"></rect>
                    <rect id="Rectangle-2357-Copy-48" fill="#000000" x="12.8253337" y="54.5076681" width="6.41266683" height="3.20633341"></rect>
                    <rect id="Rectangle-2357-Copy-47" fill="#000000" x="16.0316671" y="51.3013346" width="6.41266683" height="3.20633341"></rect>
                    <rect id="Rectangle-2357-Copy-35" fill="#000000" x="48.0950012" y="67.3330017" width="6.41266683" height="3.20633341"></rect>
                    <rect id="Rectangle-2357-Copy-52" fill="#000000" transform="translate(1.603167, 52.904501) rotate(-270.000000) translate(-1.603167, -52.904501) " x="-3.20633341" y="51.3013346" width="9.61900024" height="3.20633341"></rect>
                    <rect id="Rectangle-2357-Copy-49" fill="#000000" transform="translate(14.428500, 62.523502) rotate(-270.000000) translate(-14.428500, -62.523502) " x="9.61900024" y="60.9203349" width="9.61900024" height="3.20633341"></rect>
                    <rect id="Rectangle-2357-Copy-42" fill="#000000" x="35.2696676" y="57.7140015" width="9.61900024" height="3.20633341"></rect>
                    <rect id="Rectangle-2357-Copy-37" fill="#000000" x="38.476001" y="64.1266683" width="9.61900024" height="3.20633341"></rect>
                    <rect id="Rectangle-2357-Copy-66" fill="#000000" x="44.8886678" y="48.0950012" width="3.20633341" height="3.20633341"></rect>
                    <rect id="Rectangle-2357-Copy-69" fill="#000000" x="57.7140015" y="60.9203349" width="3.20633341" height="3.20633341"></rect>
                    <rect id="Rectangle-2357-Copy-70" fill="#000000" x="64.1266683" y="60.9203349" width="3.20633341" height="3.20633341"></rect>
                    <rect id="Rectangle-2357-Copy-71" fill="#000000" x="73.7456685" y="60.9203349" width="3.20633341" height="3.20633341"></rect>
                    <rect id="Rectangle-2357-Copy-81" fill="#FE735B" x="3.20633341" y="48.0950012" width="16.0316671" height="3.20633341"></rect>
                    <rect id="Rectangle-2357-Copy-82" fill="#FE735B" x="44.8886678" y="51.3013346" width="16.0316671" height="3.20633341"></rect>
                    <rect id="Rectangle-2357-Copy-83" fill="#FE735B" x="44.8886678" y="54.5076681" width="16.0316671" height="3.20633341"></rect>
                    <rect id="Rectangle-2357-Copy-84" fill="#FE735B" x="44.8886678" y="57.7140015" width="16.0316671" height="3.20633341"></rect>
                    <rect id="Rectangle-2357-Copy-78" fill="#FE735B" x="3.20633341" y="51.3013346" width="12.8253337" height="3.20633341"></rect>
                    <rect id="Rectangle-2357-Copy-79" fill="#FE735B" x="48.0950012" y="48.0950012" width="12.8253337" height="3.20633341"></rect>
                    <rect id="Rectangle-2357-Copy-80" fill="#FE735B" x="60.9203349" y="44.8886678" width="12.8253337" height="3.20633341"></rect>
                    <rect id="Rectangle-2357-Copy-85" fill="#FE735B" x="48.0950012" y="60.9203349" width="9.61900024" height="3.20633341"></rect>
                    <rect id="Rectangle-2357-Copy-88" fill="#FE735B" x="64.1266683" y="48.0950012" width="9.61900024" height="3.20633341"></rect>
                    <rect id="Rectangle-2357-Copy-86" fill="#FE735B" x="3.20633341" y="54.5076681" width="9.61900024" height="3.20633341"></rect>
                    <rect id="Rectangle-2357-Copy-94" fill="#FE735B" x="6.41266683" y="44.8886678" width="9.61900024" height="3.20633341"></rect>
                    <rect id="Rectangle-2357-Copy-87" fill="#FE735B" x="6.41266683" y="57.7140015" width="6.41266683" height="3.20633341"></rect>
                    <rect id="Rectangle-2357-Copy-89" fill="#FE735B" x="64.1266683" y="51.3013346" width="6.41266683" height="3.20633341"></rect>
                    <rect id="Rectangle-2357-Copy-90" fill="#FE735B" x="64.1266683" y="54.5076681" width="6.41266683" height="3.20633341"></rect>
                    <rect id="Rectangle-2357-Copy-93" fill="#006CF0" x="35.2696676" y="51.3013346" width="6.41266683" height="3.20633341"></rect>
                    <rect id="Rectangle-2357-Copy-91" fill="#FE735B" x="60.9203349" y="60.9203349" width="3.20633341" height="3.20633341"></rect>
                    <rect id="Rectangle-2357-Copy-92" fill="#FE735B" x="64.1266683" y="57.7140015" width="3.20633341" height="3.20633341"></rect>
                    <rect id="Rectangle-2357-Copy-53" fill="#000000" x="3.20633341" y="44.8886678" width="3.20633341" height="3.20633341"></rect>
                    <rect id="Rectangle-2357-Copy-51" fill="#000000" x="3.20633341" y="57.7140015" width="3.20633341" height="3.20633341"></rect>
                    <rect id="Rectangle-2357-Copy-45" fill="#000000" x="41.6823344" y="51.3013346" width="3.20633341" height="3.20633341"></rect>
                    <rect id="Rectangle-2357-Copy-39" fill="#000000" x="38.476001" y="67.3330017" width="6.41266683" height="3.20633341"></rect>
                    <rect id="Rectangle-2357-Copy-38" fill="#000000" x="41.6823344" y="73.7456685" width="3.20633341" height="3.20633341"></rect>
                    <rect id="Rectangle-2357-Copy-40" fill="#000000" x="41.6823344" y="70.5393351" width="3.20633341" height="3.20633341"></rect>
                    <rect id="Rectangle-2357-Copy" fill="#000000" x="35.2696676" y="92.983669" width="6.41266683" height="3.20633341"></rect>
                    <rect id="Rectangle-2357-Copy-13" fill="#000000" x="51.3013346" y="76.952002" width="6.41266683" height="3.20633341"></rect>
                    <rect id="Rectangle-2357-Copy-73" fill="#000000" x="44.8886678" y="73.7456685" width="6.41266683" height="3.20633341"></rect>
                    <rect id="Rectangle-2357-Copy-2" fill="#000000" x="38.476001" y="89.7773356" width="6.41266683" height="3.20633341"></rect>
                    <rect id="Rectangle-2357-Copy-3" fill="#000000" x="32.0633341" y="89.7773356" width="6.41266683" height="3.20633341"></rect>
                    <rect id="Rectangle-2357-Copy-4" fill="#000000" x="25.6506673" y="89.7773356" width="6.41266683" height="3.20633341"></rect>
                    <rect id="Rectangle-2357-Copy-7" fill="#000000" x="38.476001" y="86.5710022" width="6.41266683" height="3.20633341"></rect>
                    <rect id="Rectangle-2357-Copy-6" fill="#000000" x="32.0633341" y="86.5710022" width="6.41266683" height="3.20633341"></rect>
                    <rect id="Rectangle-2357-Copy-5" fill="#000000" x="25.6506673" y="86.5710022" width="6.41266683" height="3.20633341"></rect>
                    <rect id="Rectangle-2357-Copy-10" fill="#000000" x="38.476001" y="83.3646688" width="6.41266683" height="3.20633341"></rect>
                    <rect id="Rectangle-2357-Copy-11" fill="#000000" x="28.8570007" y="80.1583354" width="16.0316671" height="3.20633341"></rect>
                    <rect id="Rectangle-2357-Copy-16" fill="#000000" x="76.952002" y="86.5710022" width="16.0316671" height="3.20633341"></rect>
                    <rect id="Rectangle-2357-Copy-12" fill="#000000" x="35.2696676" y="76.952002" width="9.61900024" height="3.20633341"></rect>
                    <rect id="Rectangle-2357-Copy-14" fill="#000000" x="57.7140015" y="80.1583354" width="9.61900024" height="3.20633341"></rect>
                    <rect id="Rectangle-2357-Copy-28" fill="#000000" x="67.3330017" y="57.7140015" width="9.61900024" height="3.20633341"></rect>
                    <rect id="Rectangle-2357-Copy-27" fill="#000000" x="82.9638771" y="67.3330017" width="9.61900024" height="3.20633341"></rect>
                    <rect id="Rectangle-2357-Copy-34" fill="#000000" transform="translate(97.392377, 78.154377) rotate(-270.000000) translate(-97.392377, -78.154377) " x="92.5828773" y="76.5512103" width="9.61900024" height="3.20633341"></rect>
                    <rect id="Rectangle-2357-Copy-74" fill="#000000" x="76.952002" y="64.1266683" width="9.61900024" height="3.20633341"></rect>
                    <rect id="Rectangle-2357-Copy-15" fill="#000000" x="67.3330017" y="83.3646688" width="9.61900024" height="3.20633341"></rect>
                    <rect id="Rectangle-2357-Copy-9" fill="#000000" x="32.0633341" y="83.3646688" width="6.41266683" height="3.20633341"></rect>
                    <rect id="Rectangle-2357-Copy-18" fill="#000000" x="89.3765439" y="83.3646688" width="6.41266683" height="3.20633341"></rect>
                    <rect id="Rectangle-2357-Copy-17" fill="#000000" x="82.9638771" y="83.3646688" width="6.41266683" height="3.20633341"></rect>
                    <rect id="Rectangle-2357-Copy-20" fill="#000000" x="89.3765439" y="70.5393351" width="6.41266683" height="3.20633341"></rect>
                    <rect id="Rectangle-2357-Copy-19" fill="#000000" x="82.9638771" y="70.5393351" width="6.41266683" height="3.20633341"></rect>
                    <rect id="Rectangle-2357-Copy-43" fill="#000000" transform="translate(72.142502, 54.507668) rotate(-270.000000) translate(-72.142502, -54.507668) " x="68.9361684" y="52.9045013" width="6.41266683" height="3.20633341"></rect>
                    <rect id="Rectangle-2357-Copy-75" fill="#000000" transform="translate(17.634834, 70.539335) rotate(-270.000000) translate(-17.634834, -70.539335) " x="14.4285004" y="68.9361684" width="6.41266683" height="3.20633341"></rect>
                    <rect id="Rectangle-2357-Copy-76" fill="#000000" transform="translate(20.841167, 76.952002) rotate(-270.000000) translate(-20.841167, -76.952002) " x="17.6348338" y="75.3488352" width="6.41266683" height="3.20633341"></rect>
                    <rect id="Rectangle-2357-Copy-77" fill="#000000" transform="translate(24.047501, 81.761502) rotate(-270.000000) translate(-24.047501, -81.761502) " x="22.4443339" y="80.1583354" width="3.20633341" height="3.20633341"></rect>
                    <rect id="Rectangle-2357-Copy-72" fill="#000000" transform="translate(75.348835, 48.095001) rotate(-270.000000) translate(-75.348835, -48.095001) " x="72.1425018" y="46.4918345" width="6.41266683" height="3.20633341"></rect>
                    <rect id="Rectangle-2357-Copy-22" fill="#000000" x="89.3765439" y="73.7456685" width="6.41266683" height="3.20633341"></rect>
                    <rect id="Rectangle-2357-Copy-21" fill="#000000" x="82.9638771" y="73.7456685" width="6.41266683" height="3.20633341"></rect>
                    <rect id="Rectangle-2357-Copy-24" fill="#000000" x="89.3765439" y="76.952002" width="6.41266683" height="3.20633341"></rect>
                    <rect id="Rectangle-2357-Copy-23" fill="#000000" x="82.9638771" y="76.952002" width="6.41266683" height="3.20633341"></rect>
                    <rect id="Rectangle-2357-Copy-26" fill="#000000" x="89.3765439" y="80.1583354" width="6.41266683" height="3.20633341"></rect>
                    <rect id="Rectangle-2357-Copy-25" fill="#000000" x="82.9638771" y="80.1583354" width="6.41266683" height="3.20633341"></rect>
                    <rect id="Rectangle-2357-Copy-8" fill="#000000" x="25.6506673" y="83.3646688" width="6.41266683" height="3.20633341"></rect>
                    <rect id="Rectangle-2357-Copy-95" fill="#006CF0" x="35.2696676" y="44.8886678" width="12.8253337" height="3.20633341"></rect>
                    <rect id="Rectangle-2357-Copy-96" fill="#006CF0" x="22.4443339" y="44.8886678" width="12.8253337" height="3.20633341"></rect>
                    <rect id="Rectangle-2357-Copy-97" fill="#006CF0" x="35.2696676" y="48.0950012" width="9.61900024" height="3.20633341"></rect>
                    <rect id="Rectangle-2357-Copy-98" fill="#006CF0" x="25.6506673" y="48.0950012" width="9.61900024" height="3.20633341"></rect>
                </g>
                <g id="beard" transform="translate(28.857001, 22.444334)" fill="#000000">
                    <rect id="Rectangle-2357-Copy-187" transform="translate(8.015834, 12.825334) rotate(-270.000000) translate(-8.015834, -12.825334) " x="4.80950012" y="11.222167" width="6.41266683" height="3.20633341"></rect>
                    <rect id="Rectangle-2357-Copy-198" transform="translate(4.809500, 12.825334) rotate(-270.000000) translate(-4.809500, -12.825334) " x="1.60316671" y="11.222167" width="6.41266683" height="3.20633341"></rect>
                    <rect id="Rectangle-2357-Copy-199" transform="translate(1.603167, 9.619000) rotate(-270.000000) translate(-1.603167, -9.619000) " x="-1.60316671" y="8.01583354" width="6.41266683" height="3.20633341"></rect>
                    <rect id="Rectangle-2357-Copy-200" transform="translate(1.603167, 3.206333) rotate(-270.000000) translate(-1.603167, -3.206333) " x="-1.60316671" y="1.60316671" width="6.41266683" height="3.20633341"></rect>
                    <rect id="Rectangle-2357-Copy-201" transform="translate(4.809500, 9.619000) rotate(-270.000000) translate(-4.809500, -9.619000) " x="1.60316671" y="8.01583354" width="6.41266683" height="3.20633341"></rect>
                    <rect id="Rectangle-2357-Copy-196" transform="translate(8.015834, 19.238000) rotate(-270.000000) translate(-8.015834, -19.238000) " x="4.80950012" y="17.6348338" width="6.41266683" height="3.20633341"></rect>
                    <rect id="Rectangle-2357-Copy-197" transform="translate(8.015834, 20.841167) rotate(-270.000000) translate(-8.015834, -20.841167) " x="6.41266683" y="19.2380005" width="3.20633341" height="3.20633341"></rect>
                    <rect id="Rectangle-2357-Copy-188" transform="translate(24.047501, 12.825334) rotate(-270.000000) translate(-24.047501, -12.825334) " x="20.8411672" y="11.222167" width="6.41266683" height="3.20633341"></rect>
                    <rect id="Rectangle-2357-Copy-202" transform="translate(24.047501, 16.031667) rotate(-270.000000) translate(-24.047501, -16.031667) " x="20.8411672" y="14.4285004" width="6.41266683" height="3.20633341"></rect>
                    <rect id="Rectangle-2357-Copy-194" transform="translate(27.253834, 12.825334) rotate(-270.000000) translate(-27.253834, -12.825334) " x="24.0475006" y="11.222167" width="6.41266683" height="3.20633341"></rect>
                    <rect id="Rectangle-2357-Copy-195" transform="translate(27.253834, 9.619000) rotate(-270.000000) translate(-27.253834, -9.619000) " x="24.0475006" y="8.01583354" width="6.41266683" height="3.20633341"></rect>
                    <rect id="Rectangle-2357-Copy-183" transform="translate(20.841167, 11.222167) rotate(-270.000000) translate(-20.841167, -11.222167) " x="19.2380005" y="9.61900024" width="3.20633341" height="3.20633341"></rect>
                    <rect id="Rectangle-2357-Copy-190" x="19.2380005" y="16.0316671" width="3.20633341" height="6.41266683"></rect>
                    <rect id="Rectangle-2357-Copy-191" transform="translate(17.634834, 20.841167) rotate(-270.000000) translate(-17.634834, -20.841167) " x="12.8253337" y="19.2380005" width="9.61900024" height="3.20633341"></rect>
                    <rect id="Rectangle-2357-Copy-192" transform="translate(14.428500, 20.841167) rotate(-270.000000) translate(-14.428500, -20.841167) " x="9.61900024" y="19.2380005" width="9.61900024" height="3.20633341"></rect>
                    <rect id="Rectangle-2357-Copy-193" transform="translate(11.222167, 20.841167) rotate(-270.000000) translate(-11.222167, -20.841167) " x="6.41266683" y="19.2380005" width="9.61900024" height="3.20633341"></rect>
                    <rect id="Rectangle-2357-Copy-189" x="9.61900024" y="6.41266683" width="9.61900024" height="3.20633341"></rect>
                </g>
            </g>
        </g>
    </g>
</svg>